HIERARCHY
ROOT Hips
{
  OFFSET -259.197 79.0584 1653.23
  CHANNELS 6 Xposition Yposition Zposition Zrotation Xrotation Yrotation
  JOINT Spine
  {
    OFFSET 0 8 0
    CHANNELS 6 Xposition Yposition Zposition Zrotation Xrotation Yrotation
    JOINT Spine1
    {
      OFFSET 0 8 0
      CHANNELS 6 Xposition Yposition Zposition Zrotation Xrotation Yrotation
      JOINT Spine2
      {
        OFFSET 0 8 0
        CHANNELS 6 Xposition Yposition Zposition Zrotation Xrotation Yrotation
        JOINT Spine3
        {
          OFFSET 0 8 0
          CHANNELS 6 Xposition Yposition Zposition Zrotation Xrotation Yrotation
          JOINT Neck
          {
            OFFSET 0 17 0
            CHANNELS 6 Xposition Yposition Zposition Zrotation Xrotation Yrotation
            JOINT Head
            {
              OFFSET 0 10.8 0
              CHANNELS 6 Xposition Yposition Zposition Zrotation Xrotation Yrotation
              End Site
              {
                OFFSET 0 20.25 0
              }
            }
          }
          JOINT LeftShoulder
          {
            OFFSET 5 17 0
            CHANNELS 6 Xposition Yposition Zposition Zrotation Xrotation Yrotation
            JOINT LeftShoulder2
            {
              OFFSET 6.45 0 0
              CHANNELS 6 Xposition Yposition Zposition Zrotation Xrotation Yrotation
              JOINT LeftArm
              {
                OFFSET 6.45 0 0
                CHANNELS 6 Xposition Yposition Zposition Zrotation Xrotation Yrotation
                JOINT LeftForeArm
                {
                  OFFSET 0 -32.4 -2
                  CHANNELS 6 Xposition Yposition Zposition Zrotation Xrotation Yrotation
                  JOINT LeftHand
                  {
                    OFFSET 0 -25.65 2
                    CHANNELS 6 Xposition Yposition Zposition Zrotation Xrotation Yrotation
                    JOINT LeftHandThumb1
                    {
                      OFFSET -0.5 -1.5 2.65
                      CHANNELS 6 Xposition Yposition Zposition Zrotation Xrotation Yrotation
                      JOINT LeftHandThumb2
                      {
                        OFFSET 0 -3.8 3.7
                        CHANNELS 6 Xposition Yposition Zposition Zrotation Xrotation Yrotation
                        JOINT LeftHandThumb3
                        {
                          OFFSET 0 -3 2.7
                          CHANNELS 6 Xposition Yposition Zposition Zrotation Xrotation Yrotation
                          End Site
                          {
                            OFFSET 0 -2.3 1.8
                          }
                        }
                      }
                    }
                    JOINT LeftHandIndex
                    {
                      OFFSET 0 -1.9 1.6
                      CHANNELS 6 Xposition Yposition Zposition Zrotation Xrotation Yrotation
                      JOINT LeftHandIndex1
                      {
                        OFFSET 0 -8.3 1.9
                        CHANNELS 6 Xposition Yposition Zposition Zrotation Xrotation Yrotation
                        JOINT LeftHandIndex2
                        {
                          OFFSET 0 -4.5 0
                          CHANNELS 6 Xposition Yposition Zposition Zrotation Xrotation Yrotation
                          JOINT LeftHandIndex3
                          {
                            OFFSET 0 -3.4 0
                            CHANNELS 6 Xposition Yposition Zposition Zrotation Xrotation Yrotation
                            End Site
                            {
                              OFFSET 0 -2.6 0
                            }
                          }
                        }
                      }
                    }
                    JOINT LeftHandMiddle
                    {
                      OFFSET -0.25 -2.2 0.4
                      CHANNELS 6 Xposition Yposition Zposition Zrotation Xrotation Yrotation
                      JOINT LeftHandMiddle1
                      {
                        OFFSET 0 -8.3 1
                        CHANNELS 6 Xposition Yposition Zposition Zrotation Xrotation Yrotation
                        JOINT LeftHandMiddle2
                        {
                          OFFSET 0 -4.65 0
                          CHANNELS 6 Xposition Yposition Zposition Zrotation Xrotation Yrotation
                          JOINT LeftHandMiddle3
                          {
                            OFFSET 0 -3.3 0
                            CHANNELS 6 Xposition Yposition Zposition Zrotation Xrotation Yrotation
                            End Site
                            {
                              OFFSET 0 -2.7 0
                            }
                          }
                        }
                      }
                    }
                    JOINT LeftHandRing
                    {
                      OFFSET -0.5 -2.15 -0.8
                      CHANNELS 6 Xposition Yposition Zposition Zrotation Xrotation Yrotation
                      JOINT LeftHandRing1
                      {
                        OFFSET 0 -7.75 -0.2
                        CHANNELS 6 Xposition Yposition Zposition Zrotation Xrotation Yrotation
                        JOINT LeftHandRing2
                        {
                          OFFSET 0 -3.8 0
                          CHANNELS 6 Xposition Yposition Zposition Zrotation Xrotation Yrotation
                          JOINT LeftHandRing3
                          {
                            OFFSET 0 -3.4 0
                            CHANNELS 6 Xposition Yposition Zposition Zrotation Xrotation Yrotation
                            End Site
                            {
                              OFFSET 0 -2.6 0
                            }
                          }
                        }
                      }
                    }
                    JOINT LeftHandPinky
                    {
                      OFFSET -0.75 -1.75 -1.85
                      CHANNELS 6 Xposition Yposition Zposition Zrotation Xrotation Yrotation
                      JOINT LeftHandPinky1
                      {
                        OFFSET 0 -7.15 -1
                        CHANNELS 6 Xposition Yposition Zposition Zrotation Xrotation Yrotation
                        JOINT LeftHandPinky2
                        {
                          OFFSET 0 -3 0
                          CHANNELS 6 Xposition Yposition Zposition Zrotation Xrotation Yrotation
                          JOINT LeftHandPinky3
                          {
                            OFFSET 0 -2.35 0
                            CHANNELS 6 Xposition Yposition Zposition Zrotation Xrotation Yrotation
                            End Site
                            {
                              OFFSET 0 -2.1 0
                            }
                          }
                        }
                      }
                    }
                  }
                }
              }
            }
          }
          JOINT RightShoulder
          {
            OFFSET -5 17 0
            CHANNELS 6 Xposition Yposition Zposition Zrotation Xrotation Yrotation
            JOINT RightShoulder2
            {
              OFFSET -6.45 0 0
              CHANNELS 6 Xposition Yposition Zposition Zrotation Xrotation Yrotation
              JOINT RightArm
              {
                OFFSET -6.45 0 0
                CHANNELS 6 Xposition Yposition Zposition Zrotation Xrotation Yrotation
                JOINT RightForeArm
                {
                  OFFSET 0 -32.4 -2
                  CHANNELS 6 Xposition Yposition Zposition Zrotation Xrotation Yrotation
                  JOINT RightHand
                  {
                    OFFSET 0 -25.65 2
                    CHANNELS 6 Xposition Yposition Zposition Zrotation Xrotation Yrotation
                    JOINT RightHandThumb1
                    {
                      OFFSET 0.5 -1.5 2.65
                      CHANNELS 6 Xposition Yposition Zposition Zrotation Xrotation Yrotation
                      JOINT RightHandThumb2
                      {
                        OFFSET 0 -3.8 3.7
                        CHANNELS 6 Xposition Yposition Zposition Zrotation Xrotation Yrotation
                        JOINT RightHandThumb3
                        {
                          OFFSET 0 -3 2.7
                          CHANNELS 6 Xposition Yposition Zposition Zrotation Xrotation Yrotation
                          End Site
                          {
                            OFFSET 0 -2.3 1.8
                          }
                        }
                      }
                    }
                    JOINT RightHandIndex
                    {
                      OFFSET 0 -1.9 1.6
                      CHANNELS 6 Xposition Yposition Zposition Zrotation Xrotation Yrotation
                      JOINT RightHandIndex1
                      {
                        OFFSET 0 -8.3 1.9
                        CHANNELS 6 Xposition Yposition Zposition Zrotation Xrotation Yrotation
                        JOINT RightHandIndex2
                        {
                          OFFSET 0 -4.5 0
                          CHANNELS 6 Xposition Yposition Zposition Zrotation Xrotation Yrotation
                          JOINT RightHandIndex3
                          {
                            OFFSET 0 -3.4 0
                            CHANNELS 6 Xposition Yposition Zposition Zrotation Xrotation Yrotation
                            End Site
                            {
                              OFFSET 0 -2.6 0
                            }
                          }
                        }
                      }
                    }
                    JOINT RightHandMiddle
                    {
                      OFFSET 0.25 -2.2 0.4
                      CHANNELS 6 Xposition Yposition Zposition Zrotation Xrotation Yrotation
                      JOINT RightHandMiddle1
                      {
                        OFFSET 0 -8.3 1
                        CHANNELS 6 Xposition Yposition Zposition Zrotation Xrotation Yrotation
                        JOINT RightHandMiddle2
                        {
                          OFFSET 0 -4.65 0
                          CHANNELS 6 Xposition Yposition Zposition Zrotation Xrotation Yrotation
                          JOINT RightHandMiddle3
                          {
                            OFFSET 0 -3.3 0
                            CHANNELS 6 Xposition Yposition Zposition Zrotation Xrotation Yrotation
                            End Site
                            {
                              OFFSET 0 -2.7 0
                            }
                          }
                        }
                      }
                    }
                    JOINT RightHandRing
                    {
                      OFFSET 0.5 -2.15 -0.8
                      CHANNELS 6 Xposition Yposition Zposition Zrotation Xrotation Yrotation
                      JOINT RightHandRing1
                      {
                        OFFSET 0 -7.75 -0.2
                        CHANNELS 6 Xposition Yposition Zposition Zrotation Xrotation Yrotation
                        JOINT RightHandRing2
                        {
                          OFFSET 0 -3.8 0
                          CHANNELS 6 Xposition Yposition Zposition Zrotation Xrotation Yrotation
                          JOINT RightHandRing3
                          {
                            OFFSET 0 -3.4 0
                            CHANNELS 6 Xposition Yposition Zposition Zrotation Xrotation Yrotation
                            End Site
                            {
                              OFFSET 0 -2.6 0
                            }
                          }
                        }
                      }
                    }
                    JOINT RightHandPinky
                    {
                      OFFSET 0.75 -1.75 -1.85
                      CHANNELS 6 Xposition Yposition Zposition Zrotation Xrotation Yrotation
                      JOINT RightHandPinky1
                      {
                        OFFSET 0 -7.15 -1
                        CHANNELS 6 Xposition Yposition Zposition Zrotation Xrotation Yrotation
                        JOINT RightHandPinky2
                        {
                          OFFSET 0 -3 0
                          CHANNELS 6 Xposition Yposition Zposition Zrotation Xrotation Yrotation
                          JOINT RightHandPinky3
                          {
                            OFFSET 0 -2.35 0
                            CHANNELS 6 Xposition Yposition Zposition Zrotation Xrotation Yrotation
                            End Site
                            {
                              OFFSET 0 -2.1 0
                            }
                          }
                        }
                      }
                    }
                  }
                }
              }
            }
          }
        }
      }
    }
  }
  JOINT LeftUpLeg
  {
    OFFSET 8 0 0
    CHANNELS 6 Xposition Yposition Zposition Zrotation Xrotation Yrotation
    JOINT LeftLeg
    {
      OFFSET 0 -45 -1
      CHANNELS 6 Xposition Yposition Zposition Zrotation Xrotation Yrotation
      JOINT LeftFoot
      {
        OFFSET 0 -41 -2
        CHANNELS 6 Xposition Yposition Zposition Zrotation Xrotation Yrotation
        JOINT LeftToeBase
        {
          OFFSET 0 -7.5 12.5
          CHANNELS 6 Xposition Yposition Zposition Zrotation Xrotation Yrotation
          JOINT LeftFootToe
          {
            OFFSET 0 0 4
            CHANNELS 6 Xposition Yposition Zposition Zrotation Xrotation Yrotation
            End Site
            {
              OFFSET 0 0 0
            }
          }
        }
      }
    }
  }
  JOINT RightUpLeg
  {
    OFFSET -8 0 0
    CHANNELS 6 Xposition Yposition Zposition Zrotation Xrotation Yrotation
    JOINT RightLeg
    {
      OFFSET 0 -45 -1
      CHANNELS 6 Xposition Yposition Zposition Zrotation Xrotation Yrotation
      JOINT RightFoot
      {
        OFFSET 0 -41 -2
        CHANNELS 6 Xposition Yposition Zposition Zrotation Xrotation Yrotation
        JOINT RightToeBase
        {
          OFFSET 0 -7.5 12.5
          CHANNELS 6 Xposition Yposition Zposition Zrotation Xrotation Yrotation
          JOINT RightFootToe
          {
            OFFSET 0 0 4
            CHANNELS 6 Xposition Yposition Zposition Zrotation Xrotation Yrotation
            End Site
            {
              OFFSET 0 0 0
            }
          }
        }
      }
    }
  }
}
MOTION
Frames:	3
Frame Time:	0.0111111
-260.1 72.8913 1649.15 0.0451103 8.5241 -166.038 1.13687e-13 8 0 0.730549 9.00081 -2.27199 -1.13687e-13 8 0 1.71459 5.35975 -4.16081 0 8 -2.27374e-13 0.808433 2.69793 -2.06009 0 8 0 0.80686 2.69299 -2.05635 0 17 2.27374e-13 4.8096 6.32825 -10.3451 2.84217e-14 10.8 2.27374e-13 11.4173 5.26181 -23.9716 5 17 -2.27374e-13 2.13329 -0.838776 -3.71586 6.45 -2.84217e-14 -2.27374e-13 0.843999 0.62122 3.60878 6.45 5.68434e-14 -2.27374e-13 61.2523 23.2195 15.1484 -5.68434e-14 -32.4 -2 -88.9862 -62.3106 -83.4085 0 -25.65 2 23.8573 -25.6351 -23.8794 -0.5 -1.5 2.65 -34.9036 -47.2225 111.899 5.68434e-14 -3.8 3.7 -0.118585 34.7225 0.0231798 -5.68434e-14 -3 2.7 -0.0410647 35.6476 0.0836728 -1.42109e-14 -1.9 1.6 1.49089e-16 3.18055e-15 3.10601e-17 -1.42109e-14 -8.3 1.9 -49.6733 -15.8571 -6.60306 -2.27374e-13 -4.5 2.84217e-14 -43.776 0.00460153 -0.00790328 -2.27374e-13 -3.4 1.13687e-13 -30.4235 0.00811434 0.00577333 -0.25 -2.2 0.4 1.49089e-16 3.18055e-15 3.10601e-17 0 -8.3 1 -53.1825 -10.2781 -2.51946 0 -4.65 5.68434e-14 -69.9833 0.0051179 -0.00918608 2.27374e-13 -3.3 5.68434e-14 -90.0002 -1.49834e-14 1.26166e-14 -0.5 -2.15 -0.8 1.49089e-16 3.18055e-15 3.10601e-17 1.42109e-14 -7.75 -0.2 -63.7512 -16.9526 10.5561 -2.27374e-13 -3.8 -1.13687e-13 -39.389 -0.00295477 -0.000736815 -2.27374e-13 -3.4 -2.27374e-13 -90.0002 -0.000137329 -0.000198364 -0.75 -1.75 -1.85 1.49089e-16 3.18055e-15 3.10601e-17 0 -7.15 -1 -83.5295 10.274 20.8246 0 -3 0 -66.8263 1.91955e-05 -0.00235148 0 -2.35 2.27374e-13 -90.0002 1.59028e-15 1.59028e-14 -5 17 0 13.6251 -1.06247 -0.393051 -6.45 0 0 -2.65767 0.0551531 -5.89953 -6.45 8.52651e-14 0 -25.9565 8.82514 -10.158 2.84217e-14 -32.4 -2 7.29706 -41.9953 23.1539 0 -25.65 2 -25.602 -13.3899 25.9607 0.5 -1.5 2.65 31.5521 6.55581 2.80181 -2.27374e-13 -3.8 3.7 0.521052 7.83666 -0.210841 0 -3 2.7 0.159627 8.21712 -0.0174854 0 -1.9 1.6 4.77083e-15 -3.18055e-15 9.54166e-15 0 -8.3 1.9 6.65355 20.4361 -1.4365 -1.13687e-13 -4.5 0 -7.15622e-15 -1.59028e-15 0.00107215 1.13687e-13 -3.4 0 -7.95257e-16 6.36111e-15 0.00106871 0.25 -2.2 0.4 4.77083e-15 -3.18055e-15 9.54166e-15 -1.13687e-13 -8.3 1 5.23447 16.6348 -1.0008 -1.13687e-13 -4.65 2.27374e-13 0.143543 -0.00286069 7.1669e-06 0 -3.3 -2.27374e-13 0.141303 -0.00281633 6.94566e-06 0.5 -2.15 -0.8 4.77083e-15 -3.18055e-15 9.54166e-15 1.13687e-13 -7.75 -0.2 2.84584 9.05534 -0.431539 -1.13687e-13 -3.8 -2.27374e-13 1.69244 -0.0313187 -0.00402704 0 -3.4 2.27374e-13 1.56032 -0.028735 -0.00278334 0.75 -1.75 -1.85 4.77083e-15 -3.18055e-15 9.54166e-15 -1.13687e-13 -7.15 -1 0.0361324 1.00812 -0.00581522 1.13687e-13 -3 -2.27374e-13 3.2444 -0.0526655 -8.69019e-05 1.13687e-13 -2.35 -2.27374e-13 2.9291 -0.04705 0.00240741 8 0 0 0.450886 -53.3529 7.88695 0 -45 -1 2.45978 51.2027 -5.68293 0 -41 -2 2.95 7.66715 -9.03716 0 -7.5 12.5 -1.98785e-16 3.97569e-16 -2.38542e-15 0 0 4 -5.21607 0.29647 -9.00285 -8 0 0 -24.9974 -45.2336 -28.9598 2.84217e-14 -45 -1 -14.2792 80.8113 17.2525 0 -41 -2 -1.62254 1.21314 12.0772 0 -7.5 12.5 3.89756e-15 -24.269 1.74444e-15 -5.68434e-14 4.44089e-16 4 -4.15618 23.8626 29.1433 
-260.088 72.8474 1649.13 0.0697337 8.63805 -166.107 1.13687e-13 8 -2.27374e-13 0.665684 8.90537 -2.29916 0 8 -2.27374e-13 1.67171 5.22054 -4.19421 5.68434e-14 8 0 0.787913 2.62791 -2.07783 0 8 0 0.786422 2.62323 -2.07415 0 17 2.27374e-13 4.81291 6.71514 -10.324 5.68434e-14 10.8 2.27374e-13 11.4604 5.49198 -23.8832 5 17 -2.27374e-13 2.06841 -0.425472 -3.87943 6.45 0 2.27374e-13 0.854312 0.621197 3.64256 6.45 2.84217e-14 -2.27374e-13 61.4376 23.2639 15.1783 -5.68434e-14 -32.4 -2 -87.944 -62.0707 -82.5925 0 -25.65 2 23.6614 -26.2429 -23.3667 -0.5 -1.5 2.65 -35.6053 -47.1464 111.556 1.13687e-13 -3.8 3.7 -0.142333 33.7821 0.0229222 -5.68434e-14 -3 2.7 -0.0403353 33.631 0.0867304 1.42109e-14 -1.9 1.6 1.11816e-16 6.36111e-15 3.09048e-16 0 -8.3 1.9 -49.6024 -15.9514 -6.6336 0 -4.5 -8.52651e-14 -44.1574 0.0101538 -0.00790328 0 -3.4 1.42109e-13 -30.6658 0.00811434 0.00577333 -0.25 -2.2 0.4 1.11816e-16 6.36111e-15 3.09048e-16 -1.42109e-14 -8.3 1 -52.9734 -10.3308 -2.53277 0 -4.65 5.68434e-14 -70.261 0.0051179 -0.00918608 2.27374e-13 -3.3 0 -90.0002 -2.48481e-14 1.0635e-14 -0.5 -2.15 -0.8 1.11816e-16 6.36111e-15 3.09048e-16 1.42109e-14 -7.75 -0.2 -63.4954 -16.9503 10.5301 -2.27374e-13 -3.8 1.13687e-13 -39.4036 -0.00295477 -0.000736815 0 -3.4 -1.13687e-13 -90.0002 -0.000137329 -0.000198364 -0.75 -1.75 -1.85 1.11816e-16 6.36111e-15 3.09048e-16 1.42109e-14 -7.15 -1 -83.3392 10.4555 20.8772 -2.27374e-13 -3 2.27374e-13 -66.7312 1.91955e-05 -0.00235148 -1.13687e-13 -2.35 2.27374e-13 -90.0002 -1.59028e-15 2.8625e-14 -5 17 2.27374e-13 13.6222 -0.754243 -0.390772 -6.45 5.68434e-14 -2.27374e-13 -2.65768 0.0551548 -5.88285 -6.45 0 2.27374e-13 -26.2454 8.65891 -10.2211 5.68434e-14 -32.4 -2 7.6296 -41.6928 23.0001 0 -25.65 2 -25.3764 -13.6352 25.5282 0.5 -1.5 2.65 31.4537 7.27061 2.59085 -2.27374e-13 -3.8 3.7 0.585457 6.93206 -0.239149 0 -3 2.7 0.202797 12.0763 -0.0269598 0 -1.9 1.6 6.36111e-15 -3.18055e-15 -0 1.13687e-13 -8.3 1.9 6.92175 20.7719 -1.51349 -1.13687e-13 -4.5 2.27374e-13 6.36123e-15 -6.36111e-15 0.00107215 1.13687e-13 -3.4 0 1.7493e-14 4.77083e-15 0.00106871 0.25 -2.2 0.4 6.36111e-15 -3.18055e-15 -0 -1.13687e-13 -8.3 1 5.4378 16.9635 -1.05505 0 -4.65 2.27374e-13 0.610417 -0.012076 0.000955681 0 -3.3 -2.27374e-13 0.58537 -0.0115128 0.00109872 0.5 -2.15 -0.8 6.36111e-15 -3.18055e-15 -0 1.13687e-13 -7.75 -0.2 2.96435 9.39711 -0.458812 -1.13687e-13 -3.8 0 3.06004 -0.0506883 0.00356254 -1.13687e-13 -3.4 0 2.75139 -0.0445743 0.00563434 0.75 -1.75 -1.85 6.36111e-15 -3.18055e-15 -0 0 -7.15 -1 0.0361831 1.24903 -0.0070214 0 -3 -2.27374e-13 4.65341 -0.0623429 0.00811451 1.13687e-13 -2.35 -2.27374e-13 4.15165 -0.0540507 0.0111142 8 0 0 0.248831 -53.2053 7.50588 0 -45 -1 2.47111 51.2157 -5.70733 0 -41 -2 2.9853 7.51649 -8.27393 0 -7.5 12.5 4.96962e-17 0 -0 0 0 4 -5.24626 0.277663 -9.11399 -8 0 0 -24.8161 -45.2285 -28.736 0 -45 -1 -14.2076 80.9135 17.1311 2.84217e-14 -41 -2 -1.60305 1.19546 12.0276 5.68434e-14 -7.5 12.5 3.18055e-15 -24.2711 -0 -5.68434e-14 0 4 -4.12174 23.8615 29.1246 
-260.074 72.8056 1649.11 0.089403 8.73273 -166.189 0 8 0 0.616824 8.81156 -2.306 0 8 0 1.63525 5.09829 -4.20917 0 8 0 0.770658 2.56639 -2.08621 -5.68434e-14 8 0 0.769239 2.56193 -2.08259 -5.68434e-14 17 0 4.80799 7.05478 -10.3059 2.84217e-14 10.8 4.54747e-13 11.4868 5.71414 -23.8098 5 17 -2.27374e-13 1.98496 -0.0670932 -4.06714 6.45 0 -2.27374e-13 0.866961 0.621162 3.69314 6.45 2.84217e-14 0 61.6377 23.2551 15.22 5.68434e-14 -32.4 -2 -86.9171 -61.8006 -81.8017 -5.68434e-14 -25.65 2 23.4866 -26.8101 -22.8236 -0.5 -1.5 2.65 -36.2852 -47.0704 111.238 5.68434e-14 -3.8 3.7 -0.170094 32.8553 0.0226797 0 -3 2.7 -0.0399957 31.6372 0.0853036 1.42109e-14 -1.9 1.6 8.69683e-17 2.38542e-15 5.28022e-16 -1.42109e-14 -8.3 1.9 -49.5705 -16.0602 -6.6757 0 -4.5 2.84217e-14 -44.6084 0.0162387 -0.00790328 -2.27374e-13 -3.4 8.52651e-14 -30.9545 0.00811434 0.00577333 -0.25 -2.2 0.4 8.69683e-17 2.38542e-15 5.28022e-16 -2.84217e-14 -8.3 1 -52.7658 -10.4005 -2.55405 -2.27374e-13 -4.65 -5.68434e-14 -70.5671 0.0051179 -0.00918608 0 -3.3 0 -90.0002 -1.98785e-14 1.60022e-14 -0.5 -2.15 -0.8 8.69683e-17 2.38542e-15 5.28022e-16 1.42109e-14 -7.75 -0.2 -63.193 -16.9543 10.4937 0 -3.8 0 -39.4466 -0.00295477 -0.000736815 2.27374e-13 -3.4 -5.68434e-14 -90.0002 -0.000137329 -0.000198364 -0.75 -1.75 -1.85 8.69683e-17 2.38542e-15 5.28022e-16 2.84217e-14 -7.15 -1 -83.1221 10.6705 20.9394 -4.54747e-13 -3 0 -66.6948 3.17857e-05 -0.00235148 -1.13687e-13 -2.35 2.27374e-13 -90.0002 -9.54166e-15 2.8625e-14 -5 17 0 13.5984 -0.496482 -0.399853 -6.45 2.84217e-14 0 -2.6577 0.0551561 -5.86951 -6.45 5.68434e-14 0 -26.5021 8.54546 -10.3414 0 -32.4 -2 7.96637 -41.5093 22.8828 0 -25.65 2 -25.0838 -14.0287 24.8691 0.5 -1.5 2.65 31.2372 8.18597 2.403 -4.54747e-13 -3.8 3.7 0.660103 5.87432 -0.271261 0 -3 2.7 0.306239 17.3416 -0.0495481 -1.13687e-13 -1.9 1.6 1.76556e-30 -1.27222e-14 7.95139e-15 -1.13687e-13 -8.3 1.9 7.1665 21.0866 -1.58704 -2.27374e-13 -4.5 2.27374e-13 0.0700095 -0.00248852 0.00107215 1.13687e-13 -3.4 0 0.0694733 -0.00246377 0.00106871 0.25 -2.2 0.4 1.76556e-30 -1.27222e-14 7.95139e-15 -1.13687e-13 -8.3 1 5.61119 17.2341 -1.10226 0 -4.65 2.27374e-13 1.59079 -0.0419587 0.0183137 0 -3.3 -2.27374e-13 1.47075 -0.0373206 0.0182287 0.5 -2.15 -0.8 1.76556e-30 -1.27222e-14 7.95139e-15 2.27374e-13 -7.75 -0.2 3.04617 9.61667 -0.477655 0 -3.8 -2.27374e-13 4.86393 -0.087669 0.0397442 0 -3.4 0 4.26387 -0.0704972 0.0397721 0.75 -1.75 -1.85 1.76556e-30 -1.27222e-14 7.95139e-15 -2.27374e-13 -7.15 -1 0.0339518 1.36537 -0.0084001 0 -3 0 6.13539 -0.0739464 0.0303244 0 -2.35 -4.54747e-13 5.42916 -0.0606573 0.0316121 8 -5.68434e-14 0 -0.00151474 -53.0597 7.05142 0 -45 -1 2.50752 51.2202 -5.79084 0 -41 -2 2.9805 7.3684 -7.44374 5.68434e-14 -7.5 12.5 1.49089e-16 0 -7.95139e-16 0 0 4 -5.25891 0.224015 -9.10072 -8 5.68434e-14 0 -24.6373 -45.2403 -28.5079 2.84217e-14 -45 -1 -14.1181 81.015 16.9891 0 -41 -2 -1.57994 1.17617 11.9561 0 -7.5 12.5 1.35929e-15 -24.3031 5.23473e-15 -5.68434e-14 0 4 -4.09182 23.8868 29.1103 
